# Blender v2.93.1 OBJ File: 'HealPotion1.blend'
# www.blender.org
mtllib HealPotion1.mtl
o sphere
v 0.000000 0.116627 0.031250
v 0.015625 0.116627 0.027063
v 0.000000 0.125000 0.000000
v 0.000000 0.093750 0.054127
v 0.027063 0.093750 0.046875
v 0.000000 0.062500 0.062500
v 0.031250 0.062500 0.054127
v 0.000000 0.031250 0.054127
v 0.027063 0.031250 0.046875
v 0.000000 0.008373 0.031250
v 0.015625 0.008373 0.027063
v 0.000000 0.000000 0.000000
v 0.027063 0.116627 0.015625
v 0.046875 0.093750 0.027063
v 0.054127 0.062500 0.031250
v 0.046875 0.031250 0.027063
v 0.027063 0.008373 0.015625
v 0.031250 0.116627 0.000000
v 0.054127 0.093750 0.000000
v 0.062500 0.062500 0.000000
v 0.054127 0.031250 0.000000
v 0.031250 0.008373 0.000000
v 0.027063 0.116627 -0.015625
v 0.046875 0.093750 -0.027063
v 0.054127 0.062500 -0.031250
v 0.046875 0.031250 -0.027063
v 0.027063 0.008373 -0.015625
v 0.015625 0.116627 -0.027063
v 0.027063 0.093750 -0.046875
v 0.031250 0.062500 -0.054127
v 0.027063 0.031250 -0.046875
v 0.015625 0.008373 -0.027063
v 0.000000 0.116627 -0.031250
v 0.000000 0.093750 -0.054127
v 0.000000 0.062500 -0.062500
v 0.000000 0.031250 -0.054127
v 0.000000 0.008373 -0.031250
v -0.015625 0.116627 -0.027063
v -0.027063 0.093750 -0.046875
v -0.031250 0.062500 -0.054127
v -0.027063 0.031250 -0.046875
v -0.015625 0.008373 -0.027063
v -0.027063 0.116627 -0.015625
v -0.046875 0.093750 -0.027063
v -0.054127 0.062500 -0.031250
v -0.046875 0.031250 -0.027063
v -0.027063 0.008373 -0.015625
v -0.031250 0.116627 0.000000
v -0.054127 0.093750 0.000000
v -0.062500 0.062500 0.000000
v -0.054127 0.031250 0.000000
v -0.031250 0.008373 0.000000
v -0.027063 0.116627 0.015625
v -0.046875 0.093750 0.027063
v -0.054127 0.062500 0.031250
v -0.046875 0.031250 0.027063
v -0.027063 0.008373 0.015625
v -0.015625 0.116627 0.027063
v -0.027063 0.093750 0.046875
v -0.031250 0.062500 0.054127
v -0.027063 0.031250 0.046875
v -0.015625 0.008373 0.027063
v 0.011719 0.118750 0.020297
v 0.000000 0.118750 0.023438
v 0.000000 0.118750 0.000000
v 0.011719 0.181250 0.020297
v 0.000000 0.181250 0.023438
v 0.000000 0.181250 0.000000
v 0.020297 0.118750 0.011719
v 0.020297 0.181250 0.011719
v 0.023438 0.118750 0.000000
v 0.023438 0.181250 0.000000
v 0.020297 0.118750 -0.011719
v 0.020297 0.181250 -0.011719
v 0.011719 0.118750 -0.020297
v 0.011719 0.181250 -0.020297
v 0.000000 0.118750 -0.023437
v 0.000000 0.181250 -0.023437
v -0.011719 0.118750 -0.020297
v -0.011719 0.181250 -0.020297
v -0.020297 0.118750 -0.011719
v -0.020297 0.181250 -0.011719
v -0.023438 0.118750 0.000000
v -0.023438 0.181250 0.000000
v -0.020297 0.118750 0.011719
v -0.020297 0.181250 0.011719
v -0.011719 0.118750 0.020297
v -0.011719 0.181250 0.020297
v 0.015625 0.175000 0.027063
v 0.000000 0.175000 0.031250
v 0.000000 0.175000 0.000000
v 0.015625 0.190625 0.027063
v 0.000000 0.190625 0.031250
v 0.000000 0.190625 0.000000
v 0.027063 0.175000 0.015625
v 0.027063 0.190625 0.015625
v 0.031250 0.175000 0.000000
v 0.031250 0.190625 0.000000
v 0.027063 0.175000 -0.015625
v 0.027063 0.190625 -0.015625
v 0.015625 0.175000 -0.027063
v 0.015625 0.190625 -0.027063
v 0.000000 0.175000 -0.031250
v 0.000000 0.190625 -0.031250
v -0.015625 0.175000 -0.027063
v -0.015625 0.190625 -0.027063
v -0.027063 0.175000 -0.015625
v -0.027063 0.190625 -0.015625
v -0.031250 0.175000 0.000000
v -0.031250 0.190625 0.000000
v -0.027063 0.175000 0.015625
v -0.027063 0.190625 0.015625
v -0.015625 0.175000 0.027063
v -0.015625 0.190625 0.027063
v 0.011719 0.187500 0.020297
v 0.000000 0.187500 0.023438
v 0.000000 0.187500 0.000000
v 0.011719 0.218750 0.020298
v 0.000000 0.218750 0.023438
v 0.000000 0.218750 0.000000
v 0.020297 0.187500 0.011719
v 0.020297 0.218750 0.011719
v 0.023438 0.187500 0.000000
v 0.023438 0.218750 0.000000
v 0.020297 0.187500 -0.011719
v 0.020297 0.218750 -0.011719
v 0.011719 0.187500 -0.020297
v 0.011719 0.218750 -0.020297
v 0.000000 0.187500 -0.023437
v 0.000000 0.218750 -0.023437
v -0.011719 0.187500 -0.020297
v -0.011719 0.218750 -0.020297
v -0.020297 0.187500 -0.011719
v -0.020297 0.218750 -0.011719
v -0.023438 0.187500 0.000000
v -0.023438 0.218750 0.000000
v -0.020297 0.187500 0.011719
v -0.020297 0.218750 0.011719
v -0.011719 0.187500 0.020297
v -0.011719 0.218750 0.020298
vt 0.013686 0.526819
vt 0.094743 0.526819
vt 0.486278 0.563317
vt 0.013686 0.427105
vt 0.094743 0.427105
vt 0.013686 0.290892
vt 0.094743 0.290892
vt 0.013686 0.154679
vt 0.094743 0.154679
vt 0.013686 0.054965
vt 0.094743 0.054965
vt 0.499321 0.018467
vt 0.175800 0.526819
vt 0.175800 0.427105
vt 0.175800 0.290892
vt 0.175801 0.154679
vt 0.175801 0.054965
vt 0.256858 0.526819
vt 0.256858 0.427105
vt 0.256858 0.290892
vt 0.256858 0.154679
vt 0.256858 0.054965
vt 0.337915 0.526819
vt 0.337915 0.427105
vt 0.337915 0.290892
vt 0.337915 0.154680
vt 0.337915 0.054965
vt 0.418973 0.526819
vt 0.418973 0.427105
vt 0.418973 0.290892
vt 0.418973 0.154680
vt 0.418973 0.054965
vt 0.500030 0.526819
vt 0.500030 0.427105
vt 0.500030 0.290892
vt 0.500030 0.154680
vt 0.500030 0.054965
vt 0.581088 0.526819
vt 0.581088 0.427105
vt 0.581088 0.290892
vt 0.581088 0.154680
vt 0.581088 0.054965
vt 0.662145 0.526819
vt 0.662145 0.427105
vt 0.662145 0.290892
vt 0.662145 0.154680
vt 0.662145 0.054965
vt 0.743203 0.526819
vt 0.743203 0.427105
vt 0.743203 0.290892
vt 0.743203 0.154679
vt 0.743203 0.054965
vt 0.824260 0.526819
vt 0.824260 0.427105
vt 0.824260 0.290892
vt 0.824260 0.154679
vt 0.824260 0.054965
vt 0.905318 0.526819
vt 0.905318 0.427105
vt 0.905318 0.290892
vt 0.905318 0.154679
vt 0.905318 0.054965
vt 0.986375 0.526819
vt 0.986375 0.427105
vt 0.986375 0.290892
vt 0.986375 0.154679
vt 0.986375 0.054965
vt 0.094743 0.536075
vt 0.013686 0.536075
vt 0.492864 0.536075
vt 0.094743 0.808500
vt 0.013686 0.808500
vt 0.015574 0.808500
vt 0.175800 0.536075
vt 0.175800 0.808500
vt 0.256858 0.536075
vt 0.256858 0.808500
vt 0.337915 0.536075
vt 0.337915 0.808500
vt 0.418973 0.536075
vt 0.418973 0.808500
vt 0.500030 0.536075
vt 0.500030 0.808500
vt 0.581088 0.536075
vt 0.581088 0.808500
vt 0.988263 0.808500
vt 0.662145 0.536075
vt 0.662145 0.808500
vt 0.743203 0.536075
vt 0.743203 0.808500
vt 0.824260 0.536075
vt 0.824260 0.808500
vt 0.905318 0.536075
vt 0.905318 0.808500
vt 0.986375 0.536075
vt 0.986375 0.808500
vt 0.094743 0.781257
vt 0.013686 0.781257
vt 0.015846 0.781257
vt 0.094743 0.849364
vt 0.013686 0.849364
vt 0.015273 0.849364
vt 0.175800 0.781257
vt 0.175800 0.849364
vt 0.256858 0.781257
vt 0.256858 0.849364
vt 0.337915 0.781257
vt 0.337915 0.849364
vt 0.418973 0.781257
vt 0.418973 0.849364
vt 0.500030 0.781257
vt 0.500030 0.849364
vt 0.581088 0.781257
vt 0.988536 0.781257
vt 0.581088 0.849364
vt 0.987962 0.849364
vt 0.662145 0.781257
vt 0.662145 0.849364
vt 0.743203 0.781257
vt 0.743203 0.849364
vt 0.824260 0.781257
vt 0.824260 0.849364
vt 0.905318 0.781257
vt 0.905318 0.849364
vt 0.986375 0.781257
vt 0.986375 0.849364
vt 0.094743 0.835742
vt 0.013686 0.835742
vt 0.015362 0.835742
vt 0.094743 0.971955
vt 0.013686 0.971955
vt 0.014760 0.971955
vt 0.175800 0.835742
vt 0.175800 0.971955
vt 0.256858 0.835742
vt 0.256858 0.971955
vt 0.337915 0.835742
vt 0.337915 0.971955
vt 0.418973 0.835742
vt 0.418973 0.971955
vt 0.500030 0.835742
vt 0.500030 0.971955
vt 0.581088 0.835742
vt 0.988051 0.835742
vt 0.581088 0.971955
vt 0.987449 0.971955
vt 0.662145 0.835742
vt 0.662145 0.971955
vt 0.743203 0.835742
vt 0.743203 0.971955
vt 0.824260 0.835742
vt 0.824260 0.971955
vt 0.905318 0.835742
vt 0.905318 0.971955
vt 0.986375 0.835742
vt 0.986375 0.971955
vn 0.0692 0.9636 0.2582
vn 0.1862 0.6947 0.6947
vn 0.2506 0.2506 0.9351
vn 0.2506 -0.2506 0.9351
vn 0.1862 -0.6947 0.6947
vn 0.0692 -0.9636 0.2582
vn 0.1890 0.9636 0.1890
vn 0.5086 0.6947 0.5086
vn 0.6846 0.2506 0.6846
vn 0.6846 -0.2506 0.6846
vn 0.5086 -0.6947 0.5086
vn 0.1890 -0.9636 0.1890
vn 0.2582 0.9636 0.0692
vn 0.6947 0.6947 0.1862
vn 0.9351 0.2506 0.2506
vn 0.9351 -0.2506 0.2506
vn 0.6947 -0.6947 0.1862
vn 0.2582 -0.9636 0.0692
vn 0.2582 0.9636 -0.0692
vn 0.6947 0.6947 -0.1862
vn 0.9351 0.2506 -0.2506
vn 0.9351 -0.2506 -0.2506
vn 0.6947 -0.6947 -0.1862
vn 0.2582 -0.9636 -0.0692
vn 0.1890 0.9636 -0.1890
vn 0.5086 0.6947 -0.5086
vn 0.6846 0.2506 -0.6846
vn 0.6846 -0.2506 -0.6846
vn 0.5086 -0.6947 -0.5086
vn 0.1890 -0.9636 -0.1890
vn 0.0692 0.9636 -0.2582
vn 0.1862 0.6947 -0.6947
vn 0.2506 0.2506 -0.9351
vn 0.2506 -0.2506 -0.9351
vn 0.1862 -0.6947 -0.6947
vn 0.0692 -0.9636 -0.2582
vn -0.0692 0.9636 -0.2582
vn -0.1862 0.6947 -0.6947
vn -0.2506 0.2506 -0.9351
vn -0.2506 -0.2506 -0.9351
vn -0.1862 -0.6947 -0.6947
vn -0.0692 -0.9636 -0.2582
vn -0.1890 0.9636 -0.1890
vn -0.5086 0.6947 -0.5086
vn -0.6846 0.2506 -0.6846
vn -0.6846 -0.2506 -0.6846
vn -0.5086 -0.6947 -0.5086
vn -0.1890 -0.9636 -0.1890
vn -0.2582 0.9636 -0.0692
vn -0.6947 0.6947 -0.1862
vn -0.9351 0.2506 -0.2506
vn -0.9351 -0.2506 -0.2506
vn -0.6947 -0.6947 -0.1862
vn -0.2582 -0.9636 -0.0692
vn -0.2582 0.9636 0.0692
vn -0.6947 0.6947 0.1862
vn -0.9351 0.2506 0.2506
vn -0.9351 -0.2506 0.2506
vn -0.6947 -0.6947 0.1862
vn -0.2582 -0.9636 0.0692
vn -0.1890 0.9636 0.1890
vn -0.5086 0.6947 0.5086
vn -0.6846 0.2506 0.6846
vn -0.6846 -0.2506 0.6846
vn -0.5086 -0.6947 0.5086
vn -0.1890 -0.9636 0.1890
vn -0.0692 0.9636 0.2582
vn -0.1862 0.6947 0.6947
vn -0.2506 0.2506 0.9351
vn -0.2506 -0.2506 0.9351
vn -0.1862 -0.6947 0.6947
vn -0.0692 -0.9636 0.2582
vn 0.0000 -1.0000 -0.0000
vn 0.2588 -0.0000 0.9659
vn 0.0000 1.0000 0.0000
vn 0.7071 -0.0000 0.7071
vn 0.9659 -0.0000 0.2588
vn 0.9659 0.0000 -0.2588
vn 0.7071 0.0000 -0.7071
vn 0.2588 0.0000 -0.9659
vn -0.2588 0.0000 -0.9659
vn -0.7071 0.0000 -0.7071
vn -0.9659 0.0000 -0.2588
vn -0.9659 -0.0000 0.2588
vn -0.7071 -0.0000 0.7071
vn -0.2588 -0.0000 0.9659
usemtl Material.001
s 1
f 1/1/1 2/2/1 3/3/1
f 1/1/2 4/4/2 5/5/2 2/2/2
f 4/4/3 6/6/3 7/7/3 5/5/3
f 6/6/4 8/8/4 9/9/4 7/7/4
f 8/8/5 10/10/5 11/11/5 9/9/5
f 11/11/6 10/10/6 12/12/6
f 2/2/7 13/13/7 3/3/7
f 2/2/8 5/5/8 14/14/8 13/13/8
f 5/5/9 7/7/9 15/15/9 14/14/9
f 7/7/10 9/9/10 16/16/10 15/15/10
f 9/9/11 11/11/11 17/17/11 16/16/11
f 17/17/12 11/11/12 12/12/12
f 13/13/13 18/18/13 3/3/13
f 13/13/14 14/14/14 19/19/14 18/18/14
f 14/14/15 15/15/15 20/20/15 19/19/15
f 15/15/16 16/16/16 21/21/16 20/20/16
f 16/16/17 17/17/17 22/22/17 21/21/17
f 22/22/18 17/17/18 12/12/18
f 18/18/19 23/23/19 3/3/19
f 18/18/20 19/19/20 24/24/20 23/23/20
f 19/19/21 20/20/21 25/25/21 24/24/21
f 20/20/22 21/21/22 26/26/22 25/25/22
f 21/21/23 22/22/23 27/27/23 26/26/23
f 27/27/24 22/22/24 12/12/24
f 23/23/25 28/28/25 3/3/25
f 23/23/26 24/24/26 29/29/26 28/28/26
f 24/24/27 25/25/27 30/30/27 29/29/27
f 25/25/28 26/26/28 31/31/28 30/30/28
f 26/26/29 27/27/29 32/32/29 31/31/29
f 32/32/30 27/27/30 12/12/30
f 28/28/31 33/33/31 3/3/31
f 28/28/32 29/29/32 34/34/32 33/33/32
f 29/29/33 30/30/33 35/35/33 34/34/33
f 30/30/34 31/31/34 36/36/34 35/35/34
f 31/31/35 32/32/35 37/37/35 36/36/35
f 37/37/36 32/32/36 12/12/36
f 33/33/37 38/38/37 3/3/37
f 33/33/38 34/34/38 39/39/38 38/38/38
f 34/34/39 35/35/39 40/40/39 39/39/39
f 35/35/40 36/36/40 41/41/40 40/40/40
f 36/36/41 37/37/41 42/42/41 41/41/41
f 42/42/42 37/37/42 12/12/42
f 38/38/43 43/43/43 3/3/43
f 38/38/44 39/39/44 44/44/44 43/43/44
f 39/39/45 40/40/45 45/45/45 44/44/45
f 40/40/46 41/41/46 46/46/46 45/45/46
f 41/41/47 42/42/47 47/47/47 46/46/47
f 47/47/48 42/42/48 12/12/48
f 43/43/49 48/48/49 3/3/49
f 43/43/50 44/44/50 49/49/50 48/48/50
f 44/44/51 45/45/51 50/50/51 49/49/51
f 45/45/52 46/46/52 51/51/52 50/50/52
f 46/46/53 47/47/53 52/52/53 51/51/53
f 52/52/54 47/47/54 12/12/54
f 48/48/55 53/53/55 3/3/55
f 48/48/56 49/49/56 54/54/56 53/53/56
f 49/49/57 50/50/57 55/55/57 54/54/57
f 50/50/58 51/51/58 56/56/58 55/55/58
f 51/51/59 52/52/59 57/57/59 56/56/59
f 57/57/60 52/52/60 12/12/60
f 53/53/61 58/58/61 3/3/61
f 53/53/62 54/54/62 59/59/62 58/58/62
f 54/54/63 55/55/63 60/60/63 59/59/63
f 55/55/64 56/56/64 61/61/64 60/60/64
f 56/56/65 57/57/65 62/62/65 61/61/65
f 62/62/66 57/57/66 12/12/66
f 58/58/67 1/63/67 3/3/67
f 58/58/68 59/59/68 4/64/68 1/63/68
f 59/59/69 60/60/69 6/65/69 4/64/69
f 60/60/70 61/61/70 8/66/70 6/65/70
f 61/61/71 62/62/71 10/67/71 8/66/71
f 10/67/72 62/62/72 12/12/72
f 63/68/73 64/69/73 65/70/73
f 64/69/74 63/68/74 66/71/74 67/72/74
f 67/72/75 66/71/75 68/73/75
f 69/74/73 63/68/73 65/70/73
f 63/68/76 69/74/76 70/75/76 66/71/76
f 66/71/75 70/75/75 68/73/75
f 71/76/73 69/74/73 65/70/73
f 69/74/77 71/76/77 72/77/77 70/75/77
f 70/75/75 72/77/75 68/73/75
f 73/78/73 71/76/73 65/70/73
f 71/76/78 73/78/78 74/79/78 72/77/78
f 72/77/75 74/79/75 68/73/75
f 75/80/73 73/78/73 65/70/73
f 73/78/79 75/80/79 76/81/79 74/79/79
f 74/79/75 76/81/75 68/73/75
f 77/82/73 75/80/73 65/70/73
f 75/80/80 77/82/80 78/83/80 76/81/80
f 76/81/75 78/83/75 68/73/75
f 79/84/73 77/82/73 65/70/73
f 77/82/81 79/84/81 80/85/81 78/83/81
f 78/83/75 80/85/75 68/86/75
f 81/87/73 79/84/73 65/70/73
f 79/84/82 81/87/82 82/88/82 80/85/82
f 80/85/75 82/88/75 68/86/75
f 83/89/73 81/87/73 65/70/73
f 81/87/83 83/89/83 84/90/83 82/88/83
f 82/88/75 84/90/75 68/86/75
f 85/91/73 83/89/73 65/70/73
f 83/89/84 85/91/84 86/92/84 84/90/84
f 84/90/75 86/92/75 68/86/75
f 87/93/73 85/91/73 65/70/73
f 85/91/85 87/93/85 88/94/85 86/92/85
f 86/92/75 88/94/75 68/86/75
f 64/95/73 87/93/73 65/70/73
f 87/93/86 64/95/86 67/96/86 88/94/86
f 88/94/75 67/96/75 68/86/75
f 89/97/73 90/98/73 91/99/73
f 90/98/74 89/97/74 92/100/74 93/101/74
f 93/101/75 92/100/75 94/102/75
f 95/103/73 89/97/73 91/99/73
f 89/97/76 95/103/76 96/104/76 92/100/76
f 92/100/75 96/104/75 94/102/75
f 97/105/73 95/103/73 91/99/73
f 95/103/77 97/105/77 98/106/77 96/104/77
f 96/104/75 98/106/75 94/102/75
f 99/107/73 97/105/73 91/99/73
f 97/105/78 99/107/78 100/108/78 98/106/78
f 98/106/75 100/108/75 94/102/75
f 101/109/73 99/107/73 91/99/73
f 99/107/79 101/109/79 102/110/79 100/108/79
f 100/108/75 102/110/75 94/102/75
f 103/111/73 101/109/73 91/99/73
f 101/109/80 103/111/80 104/112/80 102/110/80
f 102/110/75 104/112/75 94/102/75
f 105/113/73 103/111/73 91/114/73
f 103/111/81 105/113/81 106/115/81 104/112/81
f 104/112/75 106/115/75 94/116/75
f 107/117/73 105/113/73 91/114/73
f 105/113/82 107/117/82 108/118/82 106/115/82
f 106/115/75 108/118/75 94/116/75
f 109/119/73 107/117/73 91/114/73
f 107/117/83 109/119/83 110/120/83 108/118/83
f 108/118/75 110/120/75 94/116/75
f 111/121/73 109/119/73 91/114/73
f 109/119/84 111/121/84 112/122/84 110/120/84
f 110/120/75 112/122/75 94/116/75
f 113/123/73 111/121/73 91/114/73
f 111/121/85 113/123/85 114/124/85 112/122/85
f 112/122/75 114/124/75 94/116/75
f 90/125/73 113/123/73 91/114/73
f 113/123/86 90/125/86 93/126/86 114/124/86
f 114/124/75 93/126/75 94/116/75
f 115/127/73 116/128/73 117/129/73
f 116/128/74 115/127/74 118/130/74 119/131/74
f 119/131/75 118/130/75 120/132/75
f 121/133/73 115/127/73 117/129/73
f 115/127/76 121/133/76 122/134/76 118/130/76
f 118/130/75 122/134/75 120/132/75
f 123/135/73 121/133/73 117/129/73
f 121/133/77 123/135/77 124/136/77 122/134/77
f 122/134/75 124/136/75 120/132/75
f 125/137/73 123/135/73 117/129/73
f 123/135/78 125/137/78 126/138/78 124/136/78
f 124/136/75 126/138/75 120/132/75
f 127/139/73 125/137/73 117/129/73
f 125/137/79 127/139/79 128/140/79 126/138/79
f 126/138/75 128/140/75 120/132/75
f 129/141/73 127/139/73 117/129/73
f 127/139/80 129/141/80 130/142/80 128/140/80
f 128/140/75 130/142/75 120/132/75
f 131/143/73 129/141/73 117/144/73
f 129/141/81 131/143/81 132/145/81 130/142/81
f 130/142/75 132/145/75 120/146/75
f 133/147/73 131/143/73 117/144/73
f 131/143/82 133/147/82 134/148/82 132/145/82
f 132/145/75 134/148/75 120/146/75
f 135/149/73 133/147/73 117/144/73
f 133/147/83 135/149/83 136/150/83 134/148/83
f 134/148/75 136/150/75 120/146/75
f 137/151/73 135/149/73 117/144/73
f 135/149/84 137/151/84 138/152/84 136/150/84
f 136/150/75 138/152/75 120/146/75
f 139/153/73 137/151/73 117/144/73
f 137/151/85 139/153/85 140/154/85 138/152/85
f 138/152/75 140/154/75 120/146/75
f 116/155/73 139/153/73 117/144/73
f 139/153/86 116/155/86 119/156/86 140/154/86
f 140/154/75 119/156/75 120/146/75
