# Blender v2.93.1 OBJ File: 'Shield1.blend'
# www.blender.org
mtllib SpikeShield1.mtl
o cube
v 0.125000 0.000000 0.000000
v -0.125000 0.000000 0.000000
v -0.125000 0.375000 0.000000
v 0.125000 0.375000 0.000000
v 0.125000 -0.000000 0.031250
v 0.125000 0.375000 0.031250
v -0.125000 -0.000000 0.031250
v -0.125000 0.375000 0.031250
v 0.031250 0.133373 0.012500
v 0.000000 0.125000 0.012500
v 0.000000 0.187500 0.012500
v 0.031250 0.133373 0.043750
v 0.000000 0.125000 0.043750
v 0.000000 0.187500 0.043750
v 0.054127 0.156250 0.012500
v 0.054127 0.156250 0.043750
v 0.062500 0.187500 0.012500
v 0.062500 0.187500 0.043750
v 0.054127 0.218750 0.012500
v 0.054127 0.218750 0.043750
v 0.031250 0.241627 0.012500
v 0.031250 0.241627 0.043750
v 0.000000 0.250000 0.012500
v 0.000000 0.250000 0.043750
v -0.031250 0.241627 0.012500
v -0.031250 0.241627 0.043750
v -0.054127 0.218750 0.012500
v -0.054127 0.218750 0.043750
v -0.062500 0.187500 0.012500
v -0.062500 0.187500 0.043750
v -0.054127 0.156250 0.012500
v -0.054127 0.156250 0.043750
v -0.031250 0.133373 0.012500
v -0.031250 0.133373 0.043750
v 0.007812 0.217718 0.037500
v 0.000000 0.215625 0.037500
v 0.000000 0.231250 0.037500
v 0.000000 0.231250 0.100000
v 0.013532 0.223438 0.037500
v 0.015625 0.231250 0.037500
v 0.013532 0.239063 0.037500
v 0.007812 0.244782 0.037500
v 0.000000 0.246875 0.037500
v -0.007812 0.244782 0.037500
v -0.013532 0.239063 0.037500
v -0.015625 0.231250 0.037500
v -0.013532 0.223438 0.037500
v -0.007812 0.217718 0.037500
v 0.007812 0.130218 0.037500
v 0.000000 0.128125 0.037500
v 0.000000 0.143750 0.037500
v 0.000000 0.143750 0.100000
v 0.013532 0.135937 0.037500
v 0.015625 0.143750 0.037500
v 0.013532 0.151562 0.037500
v 0.007812 0.157282 0.037500
v 0.000000 0.159375 0.037500
v -0.007812 0.157282 0.037500
v -0.013532 0.151562 0.037500
v -0.015625 0.143750 0.037500
v -0.013532 0.135937 0.037500
v -0.007812 0.130218 0.037500
v -0.035937 0.173968 0.037500
v -0.043750 0.171875 0.037500
v -0.043750 0.187500 0.037500
v -0.043750 0.187500 0.100000
v -0.030218 0.179688 0.037500
v -0.028125 0.187500 0.037500
v -0.030218 0.195312 0.037500
v -0.035937 0.201032 0.037500
v -0.043750 0.203125 0.037500
v -0.051562 0.201032 0.037500
v -0.057282 0.195312 0.037500
v -0.059375 0.187500 0.037500
v -0.057282 0.179688 0.037500
v -0.051562 0.173968 0.037500
v 0.051562 0.173968 0.037500
v 0.043750 0.171875 0.037500
v 0.043750 0.187500 0.037500
v 0.043750 0.187500 0.100000
v 0.057282 0.179688 0.037500
v 0.059375 0.187500 0.037500
v 0.057282 0.195312 0.037500
v 0.051562 0.201032 0.037500
v 0.043750 0.203125 0.037500
v 0.035937 0.201032 0.037500
v 0.030218 0.195312 0.037500
v 0.028125 0.187500 0.037500
v 0.030218 0.179688 0.037500
v 0.035937 0.173968 0.037500
v 0.007812 0.173968 0.037500
v 0.000000 0.171875 0.037500
v 0.000000 0.187500 0.037500
v 0.000000 0.187500 0.100000
v 0.013532 0.179688 0.037500
v 0.015625 0.187500 0.037500
v 0.013532 0.195312 0.037500
v 0.007812 0.201032 0.037500
v 0.000000 0.203125 0.037500
v -0.007812 0.201032 0.037500
v -0.013532 0.195312 0.037500
v -0.015625 0.187500 0.037500
v -0.013532 0.179688 0.037500
v -0.007812 0.173968 0.037500
vt 0.593704 0.042559
vt 0.084223 0.042559
vt 0.084223 0.952887
vt 0.593704 0.952887
vt 0.070662 0.952434
vt 0.006977 0.952434
vt 0.006977 0.042106
vt 0.070662 0.042106
vt 0.084223 0.041407
vt 0.593704 0.041407
vt 0.593704 0.951735
vt 0.084223 0.951735
vt 0.006977 0.952434
vt 0.070662 0.952434
vt 0.070662 0.042106
vt 0.006977 0.042106
vt 0.070662 0.800712
vt 0.070662 0.193827
vt 0.006977 0.193827
vt 0.006977 0.800712
vt 0.006977 0.800712
vt 0.006977 0.193827
vt 0.070662 0.193827
vt 0.070662 0.800712
vt 0.894674 0.304344
vt 0.796559 0.278054
vt 0.796559 0.474285
vt 0.894674 0.304344
vt 0.796559 0.278054
vt 0.796559 0.474285
vt 0.966500 0.376169
vt 0.966500 0.376169
vt 0.992790 0.474285
vt 0.992790 0.474285
vt 0.966500 0.572400
vt 0.966500 0.572400
vt 0.894674 0.644226
vt 0.894674 0.644226
vt 0.796559 0.670516
vt 0.796559 0.670516
vt 0.698444 0.644226
vt 0.698444 0.644226
vt 0.626618 0.572400
vt 0.626618 0.572400
vt 0.600328 0.474285
vt 0.600328 0.474285
vt 0.626618 0.376169
vt 0.626618 0.376169
vt 0.698444 0.304344
vt 0.698444 0.304344
vt 0.821088 0.569161
vt 0.796559 0.562589
vt 0.796559 0.611647
vt 0.796559 0.611647
vt 0.839044 0.587118
vt 0.845617 0.611647
vt 0.839044 0.636175
vt 0.821088 0.654132
vt 0.796559 0.660704
vt 0.772030 0.654132
vt 0.754074 0.636175
vt 0.747501 0.611647
vt 0.754074 0.587118
vt 0.772030 0.569161
vt 0.821088 0.294438
vt 0.796559 0.287866
vt 0.796559 0.336923
vt 0.796559 0.336923
vt 0.839044 0.312394
vt 0.845617 0.336923
vt 0.839044 0.361452
vt 0.821088 0.379409
vt 0.796559 0.385981
vt 0.772030 0.379409
vt 0.754074 0.361452
vt 0.747501 0.336923
vt 0.754074 0.312394
vt 0.772030 0.294438
vt 0.683726 0.431800
vt 0.659197 0.425227
vt 0.659197 0.474285
vt 0.659197 0.474285
vt 0.701683 0.449756
vt 0.708255 0.474285
vt 0.701683 0.498814
vt 0.683726 0.516770
vt 0.659197 0.523343
vt 0.634668 0.516770
vt 0.616712 0.498814
vt 0.610139 0.474285
vt 0.616712 0.449756
vt 0.634668 0.431800
vt 0.958449 0.431800
vt 0.933921 0.425227
vt 0.933921 0.474285
vt 0.933921 0.474285
vt 0.976406 0.449756
vt 0.982978 0.474285
vt 0.976406 0.498814
vt 0.958449 0.516770
vt 0.933921 0.523343
vt 0.909392 0.516770
vt 0.891435 0.498814
vt 0.884863 0.474285
vt 0.891435 0.449756
vt 0.909392 0.431800
vt 0.821088 0.431800
vt 0.796559 0.425227
vt 0.796559 0.474285
vt 0.796559 0.474285
vt 0.839044 0.449756
vt 0.845617 0.474285
vt 0.839044 0.498814
vt 0.821088 0.516770
vt 0.796559 0.523343
vt 0.772030 0.516770
vt 0.754074 0.498814
vt 0.747501 0.474285
vt 0.754074 0.449756
vt 0.772030 0.431800
vn 0.0000 0.0000 -1.0000
vn 1.0000 0.0000 0.0000
vn 0.0000 -0.0000 1.0000
vn -1.0000 0.0000 0.0000
vn 0.0000 1.0000 0.0000
vn 0.0000 -1.0000 -0.0000
vn 0.2588 -0.9659 0.0000
vn 0.7071 -0.7071 0.0000
vn 0.9659 -0.2588 0.0000
vn 0.9659 0.2588 0.0000
vn 0.7071 0.7071 0.0000
vn 0.2588 0.9659 0.0000
vn -0.2588 0.9659 0.0000
vn -0.7071 0.7071 0.0000
vn -0.9659 0.2588 0.0000
vn -0.9659 -0.2588 0.0000
vn -0.7071 -0.7071 0.0000
vn -0.2588 -0.9659 0.0000
vn 0.2516 -0.9389 0.2347
vn 0.6874 -0.6873 0.2347
vn 0.9389 -0.2516 0.2347
vn 0.9389 0.2516 0.2347
vn 0.6873 0.6874 0.2347
vn 0.2516 0.9389 0.2347
vn -0.2516 0.9389 0.2347
vn -0.6873 0.6874 0.2347
vn -0.9389 0.2516 0.2347
vn -0.9389 -0.2516 0.2347
vn -0.6874 -0.6873 0.2347
vn -0.2516 -0.9389 0.2347
vn 0.6873 -0.6874 0.2347
vn 0.6874 0.6873 0.2347
vn -0.6874 0.6873 0.2347
vn -0.6873 -0.6874 0.2347
usemtl Material.001
s 1
f 1/1/1 2/2/1 3/3/1 4/4/1
f 5/5/2 1/6/2 4/7/2 6/8/2
f 7/9/3 5/10/3 6/11/3 8/12/3
f 2/13/4 7/14/4 8/15/4 3/16/4
f 8/17/5 6/18/5 4/19/5 3/20/5
f 2/21/6 1/22/6 5/23/6 7/24/6
f 9/25/1 10/26/1 11/27/1
f 10/26/7 9/25/7 12/28/7 13/29/7
f 13/29/3 12/28/3 14/30/3
f 15/31/1 9/25/1 11/27/1
f 9/25/8 15/31/8 16/32/8 12/28/8
f 12/28/3 16/32/3 14/30/3
f 17/33/1 15/31/1 11/27/1
f 15/31/9 17/33/9 18/34/9 16/32/9
f 16/32/3 18/34/3 14/30/3
f 19/35/1 17/33/1 11/27/1
f 17/33/10 19/35/10 20/36/10 18/34/10
f 18/34/3 20/36/3 14/30/3
f 21/37/1 19/35/1 11/27/1
f 19/35/11 21/37/11 22/38/11 20/36/11
f 20/36/3 22/38/3 14/30/3
f 23/39/1 21/37/1 11/27/1
f 21/37/12 23/39/12 24/40/12 22/38/12
f 22/38/3 24/40/3 14/30/3
f 25/41/1 23/39/1 11/27/1
f 23/39/13 25/41/13 26/42/13 24/40/13
f 24/40/3 26/42/3 14/30/3
f 27/43/1 25/41/1 11/27/1
f 25/41/14 27/43/14 28/44/14 26/42/14
f 26/42/3 28/44/3 14/30/3
f 29/45/1 27/43/1 11/27/1
f 27/43/15 29/45/15 30/46/15 28/44/15
f 28/44/3 30/46/3 14/30/3
f 31/47/1 29/45/1 11/27/1
f 29/45/16 31/47/16 32/48/16 30/46/16
f 30/46/3 32/48/3 14/30/3
f 33/49/1 31/47/1 11/27/1
f 31/47/17 33/49/17 34/50/17 32/48/17
f 32/48/3 34/50/3 14/30/3
f 10/26/1 33/49/1 11/27/1
f 33/49/18 10/26/18 13/29/18 34/50/18
f 34/50/3 13/29/3 14/30/3
f 35/51/1 36/52/1 37/53/1
f 36/52/19 35/51/19 38/54/19
f 39/55/1 35/51/1 37/53/1
f 35/51/20 39/55/20 38/54/20
f 40/56/1 39/55/1 37/53/1
f 39/55/21 40/56/21 38/54/21
f 41/57/1 40/56/1 37/53/1
f 40/56/22 41/57/22 38/54/22
f 42/58/1 41/57/1 37/53/1
f 41/57/23 42/58/23 38/54/23
f 43/59/1 42/58/1 37/53/1
f 42/58/24 43/59/24 38/54/24
f 44/60/1 43/59/1 37/53/1
f 43/59/25 44/60/25 38/54/25
f 45/61/1 44/60/1 37/53/1
f 44/60/26 45/61/26 38/54/26
f 46/62/1 45/61/1 37/53/1
f 45/61/27 46/62/27 38/54/27
f 47/63/1 46/62/1 37/53/1
f 46/62/28 47/63/28 38/54/28
f 48/64/1 47/63/1 37/53/1
f 47/63/29 48/64/29 38/54/29
f 36/52/1 48/64/1 37/53/1
f 48/64/30 36/52/30 38/54/30
f 49/65/1 50/66/1 51/67/1
f 50/66/19 49/65/19 52/68/19
f 53/69/1 49/65/1 51/67/1
f 49/65/31 53/69/31 52/68/31
f 54/70/1 53/69/1 51/67/1
f 53/69/21 54/70/21 52/68/21
f 55/71/1 54/70/1 51/67/1
f 54/70/22 55/71/22 52/68/22
f 56/72/1 55/71/1 51/67/1
f 55/71/32 56/72/32 52/68/32
f 57/73/1 56/72/1 51/67/1
f 56/72/24 57/73/24 52/68/24
f 58/74/1 57/73/1 51/67/1
f 57/73/25 58/74/25 52/68/25
f 59/75/1 58/74/1 51/67/1
f 58/74/33 59/75/33 52/68/33
f 60/76/1 59/75/1 51/67/1
f 59/75/27 60/76/27 52/68/27
f 61/77/1 60/76/1 51/67/1
f 60/76/28 61/77/28 52/68/28
f 62/78/1 61/77/1 51/67/1
f 61/77/34 62/78/34 52/68/34
f 50/66/1 62/78/1 51/67/1
f 62/78/30 50/66/30 52/68/30
f 63/79/1 64/80/1 65/81/1
f 64/80/19 63/79/19 66/82/19
f 67/83/1 63/79/1 65/81/1
f 63/79/31 67/83/31 66/82/31
f 68/84/1 67/83/1 65/81/1
f 67/83/21 68/84/21 66/82/21
f 69/85/1 68/84/1 65/81/1
f 68/84/22 69/85/22 66/82/22
f 70/86/1 69/85/1 65/81/1
f 69/85/23 70/86/23 66/82/23
f 71/87/1 70/86/1 65/81/1
f 70/86/24 71/87/24 66/82/24
f 72/88/1 71/87/1 65/81/1
f 71/87/25 72/88/25 66/82/25
f 73/89/1 72/88/1 65/81/1
f 72/88/26 73/89/26 66/82/26
f 74/90/1 73/89/1 65/81/1
f 73/89/27 74/90/27 66/82/27
f 75/91/1 74/90/1 65/81/1
f 74/90/28 75/91/28 66/82/28
f 76/92/1 75/91/1 65/81/1
f 75/91/34 76/92/34 66/82/34
f 64/80/1 76/92/1 65/81/1
f 76/92/30 64/80/30 66/82/30
f 77/93/1 78/94/1 79/95/1
f 78/94/19 77/93/19 80/96/19
f 81/97/1 77/93/1 79/95/1
f 77/93/31 81/97/31 80/96/31
f 82/98/1 81/97/1 79/95/1
f 81/97/21 82/98/21 80/96/21
f 83/99/1 82/98/1 79/95/1
f 82/98/22 83/99/22 80/96/22
f 84/100/1 83/99/1 79/95/1
f 83/99/23 84/100/23 80/96/23
f 85/101/1 84/100/1 79/95/1
f 84/100/24 85/101/24 80/96/24
f 86/102/1 85/101/1 79/95/1
f 85/101/25 86/102/25 80/96/25
f 87/103/1 86/102/1 79/95/1
f 86/102/26 87/103/26 80/96/26
f 88/104/1 87/103/1 79/95/1
f 87/103/27 88/104/27 80/96/27
f 89/105/1 88/104/1 79/95/1
f 88/104/28 89/105/28 80/96/28
f 90/106/1 89/105/1 79/95/1
f 89/105/34 90/106/34 80/96/34
f 78/94/1 90/106/1 79/95/1
f 90/106/30 78/94/30 80/96/30
f 91/107/1 92/108/1 93/109/1
f 92/108/19 91/107/19 94/110/19
f 95/111/1 91/107/1 93/109/1
f 91/107/31 95/111/31 94/110/31
f 96/112/1 95/111/1 93/109/1
f 95/111/21 96/112/21 94/110/21
f 97/113/1 96/112/1 93/109/1
f 96/112/22 97/113/22 94/110/22
f 98/114/1 97/113/1 93/109/1
f 97/113/23 98/114/23 94/110/23
f 99/115/1 98/114/1 93/109/1
f 98/114/24 99/115/24 94/110/24
f 100/116/1 99/115/1 93/109/1
f 99/115/25 100/116/25 94/110/25
f 101/117/1 100/116/1 93/109/1
f 100/116/26 101/117/26 94/110/26
f 102/118/1 101/117/1 93/109/1
f 101/117/27 102/118/27 94/110/27
f 103/119/1 102/118/1 93/109/1
f 102/118/28 103/119/28 94/110/28
f 104/120/1 103/119/1 93/109/1
f 103/119/34 104/120/34 94/110/34
f 92/108/1 104/120/1 93/109/1
f 104/120/30 92/108/30 94/110/30
